<svg width="18" height="26" viewBox="0 0 18 26" fill="none" xmlns="http://www.w3.org/2000/svg">
<path fill-rule="evenodd" clip-rule="evenodd" d="M4.16675 5.21047C4.16675 2.54109 6.33071 0.377136 9.00008 0.377136C11.6695 0.377136 13.8334 2.54109 13.8334 5.21047V13.2105C13.8334 15.8798 11.6695 18.0438 9.00008 18.0438C6.33071 18.0438 4.16675 15.8798 4.16675 13.2105V5.21047Z" fill="white"/>
<path d="M1.83341 10.5438V13.2105C1.83341 17.1685 5.04204 20.3771 9.00008 20.3771C12.9581 20.3771 16.1667 17.1685 16.1667 13.2105V10.5438H17.8334V13.2105C17.8334 17.8079 14.3211 21.5851 9.83342 22.005V25.2105H8.16675V22.005C3.67904 21.5851 0.166748 17.8079 0.166748 13.2105V10.5438H1.83341Z" fill="white"/>
</svg>
