<svg width="30" height="12" viewBox="0 0 30 12" fill="none" xmlns="http://www.w3.org/2000/svg">
<path d="M26.5541 11.1398L27.088 11.1502L27.3205 10.6695C27.8613 9.55118 28.5525 8.09107 28.9854 5.87075L29.0768 5.40204L28.7186 5.08622C27.192 3.74016 22.6177 0.912922 14.9767 0.892334H14.9722C7.28267 0.913635 2.73513 3.81102 1.20763 5.15975L0.858398 5.46811L0.938165 5.92711C1.32158 8.13339 2.06001 9.56925 2.774 10.791L3.01605 11.2052L3.49579 11.2039C5.39628 11.1986 7.73547 10.7224 9.57378 9.99135L10.0976 9.78303L10.1056 6.88695C10.8782 6.55344 12.5127 6.05981 15.0484 6.05279C17.5408 6.04589 19.1536 6.54069 19.9773 6.87789L19.9693 9.75229L20.4994 9.96062C22.3448 10.6859 24.6363 11.1025 26.5541 11.1398Z" fill="white"/>
</svg>
