<svg width="24" height="19" viewBox="0 0 24 19" fill="none" xmlns="http://www.w3.org/2000/svg">
<path d="M2.66667 0.377136C1.47005 0.377136 0.5 1.34719 0.5 2.5438V15.8771C0.5 17.0738 1.47005 18.0438 2.66667 18.0438H16C17.1966 18.0438 18.1667 17.0738 18.1667 15.8771V11.1121L22.0265 15.7439C22.2511 16.0134 22.6205 16.1134 22.9504 15.994C23.2802 15.8745 23.5 15.5613 23.5 15.2104V3.21043C23.5 2.85958 23.2802 2.54631 22.9504 2.42687C22.6205 2.30743 22.2511 2.40741 22.0265 2.67694L18.1667 7.30872V2.5438C18.1667 1.34719 17.1966 0.377136 16 0.377136H2.66667Z" fill="white"/>
</svg>
