<svg width="33" height="28" viewBox="0 0 33 28" fill="none" xmlns="http://www.w3.org/2000/svg">
<path fill-rule="evenodd" clip-rule="evenodd" d="M16.1276 7.33334C11.8704 7.33334 8.41927 10.7845 8.41927 15.0417C8.41927 19.2989 11.8704 22.75 16.1276 22.75C20.3848 22.75 23.8359 19.2989 23.8359 15.0417C23.8359 10.7845 20.3848 7.33334 16.1276 7.33334ZM10.5026 15.0417C10.5026 11.9351 13.021 9.41667 16.1276 9.41667C19.2342 9.41667 21.7526 11.9351 21.7526 15.0417C21.7526 18.1483 19.2342 20.6667 16.1276 20.6667C13.021 20.6667 10.5026 18.1483 10.5026 15.0417Z" fill="#0C1F3F"/>
<path d="M26.9609 10.4583C27.6513 10.4583 28.2109 9.89869 28.2109 9.20834C28.2109 8.51798 27.6513 7.95834 26.9609 7.95834C26.2706 7.95834 25.7109 8.51798 25.7109 9.20834C25.7109 9.89869 26.2706 10.4583 26.9609 10.4583Z" fill="#0C1F3F"/>
<path fill-rule="evenodd" clip-rule="evenodd" d="M23.7382 0.666672H8.51706L6.65039 4.00001H4.46094C2.04469 4.00001 0.0859375 5.95876 0.0859375 8.37501V23.375C0.0859375 25.7913 2.04469 27.75 4.46094 27.75H27.7943C30.2105 27.75 32.1693 25.7913 32.1693 23.375V8.37501C32.1693 5.95876 30.2105 4.00001 27.7943 4.00001H25.6048L23.7382 0.666672ZM7.87148 6.08334L9.73815 2.75001H22.5171L24.3837 6.08334H27.7943C29.0599 6.08334 30.0859 7.10935 30.0859 8.37501V23.375C30.0859 24.6407 29.0599 25.6667 27.7943 25.6667H4.46094C3.19529 25.6667 2.16927 24.6407 2.16927 23.375V8.37501C2.16927 7.10935 3.19529 6.08334 4.46094 6.08334H7.87148Z" fill="#0C1F3F"/>
</svg>
