<svg width="75" height="74" viewBox="0 0 75 74" fill="none" xmlns="http://www.w3.org/2000/svg">
<path fill-rule="evenodd" clip-rule="evenodd" d="M17.047 12.2335C13.9162 12.2335 11.3178 14.751 11.3178 17.8868V42.3402C11.3178 45.476 13.9162 47.9935 17.047 47.9935H17.8109V53.5038C17.8109 54.6065 18.5046 55.451 19.3442 55.8045C20.1945 56.1625 21.3015 56.0562 22.0717 55.2076L29.2107 47.9935H32.0818C31.9532 48.2052 31.8792 48.4536 31.8792 48.7194C31.8792 51.8551 34.4776 54.3726 37.6084 54.3726H46.7752L53.1843 60.6693C53.9531 61.4247 55.0139 61.519 55.8334 61.2027C56.6741 60.8782 57.4059 60.0627 57.4059 58.926V54.3726H58.1698C61.3006 54.3726 63.899 51.8551 63.899 48.7194V32.7715C63.899 29.6357 61.3006 27.1182 58.1698 27.1182H54.9233C54.6414 27.1182 54.3791 27.2015 54.1594 27.3447V17.8868C54.1594 14.751 51.561 12.2335 48.4302 12.2335H17.047ZM14.1187 17.8868C14.1187 16.3445 15.4162 15.0345 17.047 15.0345H48.4302C50.061 15.0345 51.3584 16.3445 51.3584 17.8868V42.3402C51.3584 43.8825 50.061 45.1926 48.4302 45.1926H28.6263C28.2523 45.1926 27.8939 45.3421 27.6308 45.6079L20.6118 52.7009V46.593C20.6118 45.8196 19.9848 45.1926 19.2113 45.1926H17.047C15.4162 45.1926 14.1187 43.8825 14.1187 42.3402V17.8868ZM54.1594 29.6927V42.3402C54.1594 45.476 51.561 47.9935 48.4302 47.9935H34.4776C34.6061 48.2052 34.6801 48.4536 34.6801 48.7194C34.6801 50.2617 35.9776 51.5717 37.6084 51.5717H47.348C47.7151 51.5717 48.0676 51.7159 48.3295 51.9732L54.605 58.1386V52.9722C54.605 52.1987 55.232 51.5717 56.0055 51.5717H58.1698C59.8006 51.5717 61.0981 50.2617 61.0981 48.7194V32.7715C61.0981 31.2292 59.8006 29.9192 58.1698 29.9192H54.9233C54.6414 29.9192 54.3791 29.8359 54.1594 29.6927Z" fill="#FF165F"/>
</svg>
