<svg width="83" height="84" viewBox="0 0 83 84" fill="none" xmlns="http://www.w3.org/2000/svg">
<path fill-rule="evenodd" clip-rule="evenodd" d="M49.6409 16.3087C49.6344 16.3121 49.6212 16.3191 49.6014 16.3298C49.562 16.3513 49.497 16.3876 49.41 16.4394C49.2358 16.5431 48.9748 16.7079 48.6557 16.9384C48.0161 17.4003 47.1523 18.1192 46.2867 19.129C44.5699 21.132 42.8219 24.3025 42.8219 28.9954V29.8201C43.3969 29.7202 44.0794 29.5741 44.9671 29.3839C50.4827 27.863 55.7873 29.0694 59.4891 32.4991C63.2001 35.9372 65.0982 41.4164 64.2106 48.0429C63.3947 54.2914 60.2877 59.7894 58.0996 63.3933C55.7896 67.1981 51.722 70.7653 46.7341 70.2977L46.7162 70.2959C45.5971 70.1781 44.6737 70.0076 43.8898 69.8629C43.7698 69.8408 43.6529 69.8192 43.5392 69.7985C42.671 69.6407 41.9882 69.5356 41.2424 69.5356C40.5002 69.5356 39.8526 69.6394 38.9986 69.7976L38.7327 69.8472C37.9358 69.9962 36.9812 70.1747 35.7603 70.2968L35.7506 70.2977C30.7627 70.7653 26.6952 67.1981 24.3851 63.3933C22.1969 59.7892 19.0898 54.2909 18.274 48.0422C17.3867 41.416 19.2848 35.9371 22.9956 32.4991C26.6975 29.0694 32.002 27.863 37.5177 29.3839C38.4061 29.5742 39.089 29.7204 39.6643 29.8203V28.9954C39.6643 28.1429 39.7136 27.33 39.8047 26.5556C39.5528 26.6383 39.2883 26.7198 39.0134 26.7977C36.9807 27.3736 34.1285 27.8272 31.4892 26.8956C28.844 25.962 27.003 23.8743 25.867 22.1875C25.2865 21.3256 24.8574 20.5197 24.5725 19.9279C24.4295 19.6309 24.3214 19.385 24.2476 19.2093C24.2106 19.1213 24.1822 19.0508 24.1621 18.9999C24.152 18.9744 24.1441 18.9539 24.1382 18.9386L24.131 18.9195L24.1285 18.913L24.1272 18.9094L25.6065 18.3579C24.8308 16.9828 24.8322 16.982 24.8327 16.9817L24.835 16.9804L24.841 16.977L24.8587 16.9673C24.8728 16.9595 24.8918 16.9491 24.9155 16.9363C24.9628 16.9109 25.0288 16.876 25.1121 16.8335C25.2786 16.7485 25.5151 16.6326 25.8104 16.5004C26.3989 16.2369 27.2315 15.9037 28.2166 15.6223C30.1482 15.0704 32.8625 14.6609 35.4878 15.5875C38.0891 16.5056 40.0488 18.517 41.3073 20.1495C41.4049 20.2762 41.4991 20.4016 41.5899 20.5253C42.2762 19.1628 43.0805 18.0177 43.8893 17.0741C44.9461 15.8411 46.0048 14.9579 46.807 14.3786C47.2088 14.0884 47.5485 13.8728 47.7949 13.7261C47.9182 13.6527 48.0184 13.5964 48.0916 13.5566C48.1282 13.5366 48.1581 13.5208 48.1808 13.509L48.2094 13.4942L48.2195 13.4891L48.2235 13.487L48.2252 13.4862C48.226 13.4858 48.2268 13.4854 48.9127 14.8571L48.2268 13.4854C49.0067 13.0954 49.955 13.4116 50.345 14.1914C50.734 14.9694 50.4204 15.9149 49.6448 16.3067M25.1416 34.8154C22.3166 37.4327 20.6261 41.8213 21.404 47.6256L21.4048 47.6311C22.1275 53.1722 24.9152 58.1822 27.0842 61.7546C29.1307 65.1253 32.2382 67.4529 35.4511 67.1543C36.5296 67.0463 37.3588 66.8914 38.1538 66.743L38.4237 66.6928C39.2999 66.5305 40.1902 66.378 41.2424 66.378C42.2908 66.378 43.21 66.5293 44.1041 66.6918C44.227 66.7142 44.3497 66.7368 44.4728 66.7595C45.2545 66.9035 46.0527 67.0506 47.0377 67.1547C50.2492 67.451 53.3549 65.1239 55.4005 61.7546C57.5695 58.1822 60.3572 53.1722 61.08 47.6311L61.0807 47.6256C61.8586 41.8213 60.1681 37.4327 57.3432 34.8154C54.5193 32.1992 50.3594 31.1599 45.7671 32.4387C45.7364 32.4473 45.7055 32.4549 45.6744 32.4616L45.3985 32.5208C43.7981 32.8646 42.5281 33.1374 41.2424 33.1374C39.9566 33.1374 38.6866 32.8646 37.0863 32.5208L36.8104 32.4616C36.7792 32.4549 36.7483 32.4473 36.7176 32.4387C32.1253 31.1599 27.9654 32.1992 25.1416 34.8154ZM29.0841 18.6584C28.5692 18.8055 28.1028 18.9706 27.7068 19.1272C27.9152 19.5167 28.1748 19.9616 28.486 20.4237C29.4647 21.8769 30.8277 23.3137 32.5401 23.918C34.2583 24.5244 36.3404 24.2731 38.1526 23.7596C38.7053 23.603 39.2103 23.4286 39.6427 23.263C39.4096 22.9017 39.1299 22.4969 38.8064 22.0772C37.6938 20.6339 36.1931 19.1849 34.4369 18.565C32.7047 17.9537 30.741 18.185 29.0841 18.6584Z" fill="#FF165F"/>
<path d="M25.6065 18.3579L24.8308 16.9828C24.1546 17.3642 23.8564 18.1817 24.1272 18.9094C24.127 18.9089 24.1268 18.9085 25.6065 18.3579Z" fill="#FF165F"/>
<path fill-rule="evenodd" clip-rule="evenodd" d="M49.6409 16.3087C49.6405 16.3089 49.6412 16.3085 49.6409 16.3087V16.3087ZM49.6409 16.3087L49.6434 16.3074L49.6409 16.3087Z" fill="#FF165F"/>
</svg>
