<svg width="80" height="81" viewBox="0 0 80 81" fill="none" xmlns="http://www.w3.org/2000/svg">
<path d="M40.2835 21.1891C39.8177 20.9894 39.16 20.9894 38.6941 21.1891C38.6567 21.2051 38.6186 21.2197 38.58 21.2327L13.6782 29.6108V31.0254L16.598 31.9102C17.402 32.1538 17.8562 33.0031 17.6126 33.8071C17.3689 34.611 16.5197 35.0653 15.7157 34.8217L11.7159 33.6096C11.0746 33.4153 10.636 32.824 10.636 32.1539V28.5177C10.636 27.8646 11.0529 27.2843 11.672 27.076L37.5579 18.3667C38.7539 17.8752 40.2128 17.8739 41.4102 18.3628L68.3788 27.0702C69.0069 27.273 69.4325 27.8577 69.4325 28.5177V32.1539C69.4325 32.8123 69.0089 33.396 68.3829 33.6001L56.0993 37.6044V44.2743C56.0993 45.1144 55.4182 45.7955 54.5782 45.7955C53.7381 45.7955 53.057 45.1144 53.057 44.2743V38.5961L40.8789 42.5661L40.8735 42.5679C39.8147 42.9195 38.6513 42.8986 37.5559 42.5856C37.521 42.5757 37.4865 42.5645 37.4524 42.552L27.01 38.742V47.9105C27.01 47.9191 27.01 47.9719 27.0797 48.0847C27.156 48.2081 27.3054 48.3843 27.5756 48.5962C28.1245 49.0269 29.0123 49.4815 30.2424 49.8915C32.6866 50.7062 36.1532 51.2376 40.0335 51.2376C41.6633 51.2376 43.1828 51.1214 44.7651 50.9997C45.6027 50.9352 46.3339 51.562 46.3984 52.3996C46.4628 53.2372 45.836 53.9685 44.9984 54.0329L44.9756 54.0347C43.4136 54.1548 41.7889 54.2798 40.0335 54.2798C35.9144 54.2798 32.1086 53.7203 29.2804 52.7776C27.8743 52.3089 26.6259 51.718 25.6976 50.9897C24.7887 50.2765 23.9678 49.2477 23.9678 47.9105V37.632L20.2272 36.2672C20.188 36.31 20.152 36.3563 20.1186 36.4064C19.9432 36.6695 19.7377 37.1925 19.7377 38.214V52.7587C19.7377 53.5987 19.0567 54.2798 18.2166 54.2798C17.3765 54.2798 16.6955 53.5987 16.6955 52.7587V38.214C16.6955 36.8114 16.9749 35.6376 17.5873 34.7189C18.0449 34.0325 18.6317 33.5734 19.2528 33.2736C19.3706 33.203 19.4975 33.1485 19.63 33.1117C19.7348 33.0721 19.8399 33.0365 19.945 33.0046L38.3548 27.0699C39.1543 26.8121 40.0114 27.2514 40.2692 28.0509C40.527 28.8505 40.0877 29.7076 39.2882 29.9654L24.7108 34.6647L38.4394 39.6737C39.0194 39.8306 39.5331 39.8079 39.9168 39.68L39.9264 39.6768L66.3903 31.0498V29.625L40.4153 21.2385C40.3706 21.2241 40.3266 21.2076 40.2835 21.1891Z" fill="#FF165F"/>
<path fill-rule="evenodd" clip-rule="evenodd" d="M49.4169 43.5317C48.9546 43.1933 48.3413 43.1434 47.8304 43.4027C47.3194 43.6619 46.9975 44.1862 46.9975 44.7592V65.364C46.9975 66.0297 47.2915 66.9903 48.2907 67.3746C49.2173 67.7311 50.0649 67.3113 50.5596 66.9155C50.593 66.8887 50.6253 66.8606 50.6563 66.8312L53.9654 63.6918L57.4942 69.9864C57.5015 69.9995 57.509 70.0124 57.5167 70.0252C57.99 70.8141 58.7919 71.1924 59.5111 71.2823C60.2061 71.3691 60.9845 71.2132 61.6272 70.7369L63.5057 69.5629C63.5184 69.555 63.5309 69.5469 63.5433 69.5386C64.7634 68.7253 65.4904 67.0332 64.6165 65.5621L61.5844 60.3401H64.6388C65.371 60.3401 65.9111 59.9654 66.2354 59.6077C66.5532 59.2572 66.7463 58.8445 66.8548 58.4784C66.964 58.1099 67.0189 57.6829 66.967 57.2553C66.9191 56.8599 66.7449 56.2245 66.1575 55.784L66.1432 55.7734L49.4169 43.5317ZM50.0397 63.2227V47.7574L63.0751 57.2979H58.9422C58.3981 57.2979 57.8954 57.5885 57.6239 58.06C57.3525 58.5316 57.3535 59.1122 57.6268 59.5828L61.912 66.9628C61.9003 66.974 61.8859 66.9862 61.868 66.9989L59.9715 68.1842L55.6632 60.4992C55.4338 60.0899 55.0282 59.8094 54.5643 59.7391C54.1003 59.6688 53.6299 59.8166 53.2895 60.1396L50.0397 63.2227Z" fill="#FF165F"/>
</svg>
