<svg width="76" height="76" viewBox="0 0 76 76" fill="none" xmlns="http://www.w3.org/2000/svg">
<path fill-rule="evenodd" clip-rule="evenodd" d="M38.1492 10.4937C33.8369 10.4937 30.3411 13.9895 30.3411 18.3018C30.3411 22.6141 33.8369 26.1098 38.1492 26.1098C42.4615 26.1098 45.9572 22.6141 45.9572 18.3018C45.9572 13.9895 42.4615 10.4937 38.1492 10.4937ZM33.2785 18.3018C33.2785 15.6118 35.4592 13.4311 38.1492 13.4311C40.8392 13.4311 43.0198 15.6118 43.0198 18.3018C43.0198 20.9918 40.8392 23.1724 38.1492 23.1724C35.4592 23.1724 33.2785 20.9918 33.2785 18.3018Z" fill="#FF165F"/>
<path d="M33.2142 30.4491C31.9606 30.8879 30.7597 31.7242 29.4393 33.5039C29.431 33.5151 29.4225 33.5262 29.4138 33.5372L24.7227 39.4962C24.6367 39.6055 24.5355 39.702 24.4223 39.7829L16.7509 45.2624C16.9824 45.5125 17.2586 45.7669 17.5755 45.9869C18.0782 46.3358 18.6566 46.5806 19.3191 46.6163C19.9713 46.6515 20.8269 46.491 21.9079 45.8338L25.3219 43.6842C26.0083 43.252 26.9151 43.4581 27.3473 44.1445C27.7795 44.8309 27.5734 45.7378 26.887 46.1699L23.4637 48.3253L23.4458 48.3364C21.9317 49.2596 20.4922 49.6212 19.161 49.5495C17.8386 49.4782 16.7449 48.986 15.9005 48.3999C15.0633 47.8188 14.4456 47.1288 14.0425 46.5998C13.8385 46.3321 13.6827 46.0968 13.5753 45.9235C13.5214 45.8366 13.4793 45.7646 13.4489 45.7111C13.4337 45.6843 13.4214 45.6621 13.412 45.6449L13.4001 45.6228L13.3958 45.6147L13.394 45.6114L13.3933 45.6099C13.3929 45.6092 13.3925 45.6086 14.6936 44.9271L13.3925 45.6086C13.0523 44.9591 13.2433 44.1581 13.8399 43.7319L22.5444 37.5145L27.0931 31.7364C28.6849 29.5961 30.3329 28.3454 32.2439 27.6766C34.0925 27.0296 36.0694 26.976 38.1492 26.976C40.2287 26.976 42.2353 27.0297 44.0978 27.6751C46.0237 28.3425 47.6789 29.5943 49.2147 31.7483L53.754 37.5145L62.4585 43.7319C63.0551 44.1581 63.2461 44.9591 62.9058 45.6086L61.6048 44.9271C62.9058 45.6086 62.9055 45.6092 62.9051 45.6099L62.9044 45.6114L62.9026 45.6147L62.8983 45.6228L62.8864 45.6449C62.877 45.6621 62.8647 45.6843 62.8495 45.7111C62.8191 45.7646 62.777 45.8366 62.7231 45.9235C62.6157 46.0968 62.4599 46.3321 62.2559 46.5998C61.8528 47.1288 61.2351 47.8188 60.3978 48.3999C59.5535 48.986 58.4598 49.4782 57.1373 49.5495C55.8062 49.6212 54.3666 49.2596 52.8526 48.3364L52.8347 48.3253L49.4114 46.1699C48.725 45.7378 48.5189 44.8309 48.9511 44.1445C49.3833 43.4581 50.2901 43.252 50.9765 43.6842L54.3905 45.8338C55.4715 46.491 56.3271 46.6515 56.9793 46.6163C57.6418 46.5806 58.2202 46.3358 58.7229 45.9869C59.0398 45.7669 59.316 45.5125 59.5474 45.2624L51.876 39.7829C51.7629 39.702 51.6617 39.6055 51.5757 39.4962L46.8846 33.5372C46.8695 33.5181 46.8549 33.4986 46.8408 33.4787C45.5934 31.721 44.4024 30.8894 43.136 30.4506C41.7971 29.9866 40.2537 29.9135 38.1492 29.9135C36.045 29.9135 34.5352 29.9867 33.2142 30.4491Z" fill="#FF165F"/>
<path d="M52.1689 65.4138C54.6304 65.4138 56.2782 64.1609 57.2592 62.9836C57.7453 62.4004 58.0812 61.8231 58.2965 61.3927C58.4049 61.1758 58.485 60.9915 58.5398 60.856C58.5594 60.8077 58.5758 60.7654 58.5893 60.7297C58.5947 60.7185 58.6003 60.7068 58.6059 60.6946C58.6125 60.6804 58.6192 60.6656 58.626 60.6503C58.6783 60.5325 58.737 60.3785 58.788 60.1912C58.8908 59.8145 58.9617 59.3061 58.8888 58.6987C58.7392 57.4522 58.0186 56.029 56.2899 54.585C54.3385 52.8948 51.7652 50.9664 49.7013 49.474C48.6628 48.7231 47.7444 48.0762 47.0853 47.6169C46.9054 47.4915 46.7447 47.38 46.6061 47.2841L46.026 39.7429C45.9658 38.9602 45.3025 38.3681 44.5267 38.3873C44.4769 38.386 44.4266 38.3873 44.3759 38.3912L44.3759 38.3986C43.6041 38.4964 43.0369 39.184 43.0972 39.9682L43.7312 48.2094C43.7632 48.625 43.97 49.006 44.2978 49.2591L44.2974 49.3118L44.3657 49.3584L44.5078 49.4557L44.5701 49.4986C44.7486 49.6213 45.0086 49.8008 45.3327 50.0267C45.9811 50.4787 46.8853 51.1155 47.9071 51.8544C49.9601 53.3388 52.4527 55.2097 54.3036 56.8139L54.3252 56.8323C55.6315 57.9208 55.8589 58.7129 55.8992 59.0486C55.9214 59.2336 55.8972 59.3591 55.8811 59.4183C55.877 59.4334 55.8733 59.4446 55.8708 59.4515C55.8337 59.5212 55.8023 59.5938 55.7768 59.6685L55.7732 59.6786C55.7682 59.6921 55.7586 59.7178 55.744 59.7539C55.7146 59.8264 55.666 59.9393 55.5961 60.079C55.4548 60.3617 55.236 60.7354 54.9296 61.1031C54.3259 61.8276 53.4379 62.4764 52.0958 62.4764H34.3456C33.4122 62.4764 32.7962 62.1949 32.3539 61.8263C31.8856 61.436 31.5307 60.8775 31.2717 60.23C31.0822 59.7561 30.9586 59.2709 30.879 58.8412L44.0818 56.7747C44.8832 56.6492 45.4311 55.8979 45.3057 55.0965C45.1803 54.2951 44.4289 53.7471 43.6275 53.8726L29.047 56.1547C28.3323 56.2666 27.8054 56.8823 27.8054 57.6058H29.2741C27.8054 57.6058 27.8054 57.6064 27.8054 57.607L27.8054 57.6084L27.8054 57.6116L27.8055 57.6197L27.8057 57.6429C27.8059 57.6614 27.8064 57.686 27.8072 57.7161C27.8088 57.7764 27.8119 57.8594 27.8177 57.962C27.8294 58.1666 27.8524 58.4515 27.8975 58.7904C27.9869 59.4607 28.1682 60.3804 28.5444 61.3209C28.9193 62.2582 29.5154 63.2845 30.4734 64.0829C31.4575 64.9029 32.7433 65.4138 34.3456 65.4138H52.1689Z" fill="#FF165F"/>
<path d="M31.9228 38.3912C32.7315 38.4534 33.3367 39.1595 33.2745 39.9682L32.6406 48.2094C32.6063 48.6547 32.3714 49.0601 32.0021 49.3112L31.933 49.3584C31.8867 49.3901 31.8178 49.4372 31.7286 49.4986C31.5501 49.6213 31.2902 49.8008 30.9661 50.0267C30.3176 50.4787 29.4135 51.1155 28.3917 51.8544C26.3387 53.3388 23.8461 55.2097 21.9951 56.8139L21.9735 56.8323C20.6673 57.9208 20.4398 58.7129 20.3995 59.0486C20.3773 59.2336 20.4015 59.3591 20.4176 59.4183C20.4218 59.4334 20.4255 59.4446 20.428 59.4515C20.465 59.5212 20.4965 59.5937 20.5219 59.6685L20.5255 59.6786C20.5305 59.6921 20.5401 59.7178 20.5548 59.7539C20.5841 59.8264 20.6328 59.9393 20.7026 60.079C20.844 60.3617 21.0627 60.7354 21.3691 61.1031C21.9729 61.8276 22.8608 62.4764 24.2029 62.4764H26.7386C27.5498 62.4764 28.2074 63.134 28.2074 63.9451C28.2074 64.7563 27.5498 65.4138 26.7387 65.4138H24.2029C21.7414 65.4138 20.0936 64.1609 19.1125 62.9836C18.6265 62.4004 18.2906 61.8231 18.0753 61.3927C17.9669 61.1758 17.8868 60.9915 17.8319 60.856C17.8124 60.8077 17.7959 60.7654 17.7825 60.7297C17.7707 60.7053 17.7584 60.6788 17.7457 60.6503C17.6935 60.5325 17.6348 60.3785 17.5837 60.1912C17.481 59.8145 17.4101 59.3061 17.483 58.6987C17.6326 57.4522 18.3532 56.029 20.0818 54.585C22.0333 52.8948 24.6066 50.9664 26.6705 49.474C27.709 48.7231 28.6274 48.0762 29.2865 47.6169C29.4664 47.4915 29.6271 47.38 29.7657 47.2841L30.3458 39.7429C30.408 38.9342 31.114 38.329 31.9228 38.3912Z" fill="#FF165F"/>
</svg>
