<svg width="84" height="84" viewBox="0 0 84 84" fill="none" xmlns="http://www.w3.org/2000/svg">
<path fill-rule="evenodd" clip-rule="evenodd" d="M48.057 19.2018C48.5056 18.4541 49.4754 18.2117 50.2231 18.6603L57.9408 23.2909C58.311 23.513 58.5741 23.8771 58.6688 24.2983C58.7635 24.7195 58.6816 25.1612 58.4421 25.5204L55.8452 29.4159L58.2851 34.7023C59.8584 34.1632 61.5462 33.8706 63.3023 33.8706C71.8465 33.8706 78.7728 40.797 78.7728 49.3411C78.7728 57.8852 71.8464 64.8116 63.3023 64.8116C54.7582 64.8116 47.8318 57.8852 47.8318 49.3411C47.8318 43.6762 50.8765 38.7225 55.4188 36.0271L53.0312 30.854H30.3552L27.9677 36.0268C32.0829 38.4685 34.969 42.7638 35.4757 47.7622H40.6196L48.3554 33.1664C48.7637 32.396 49.7193 32.1024 50.4897 32.5108C51.2602 32.9191 51.5537 33.8747 51.1454 34.6451L42.9647 50.0803C42.691 50.5968 42.1543 50.9198 41.5697 50.9198H35.4757C34.6849 58.7224 28.096 64.8116 20.0848 64.8116C11.5406 64.8116 4.61426 57.8852 4.61426 49.3411C4.61426 40.797 11.5406 33.8706 20.0848 33.8706C21.8407 33.8706 23.5282 34.1631 25.1014 34.7021L27.7671 28.9265V26.2235H24.7149C23.8429 26.2235 23.1361 25.5167 23.1361 24.6447C23.1361 23.7728 23.8429 23.0659 24.7149 23.0659H33.976C34.848 23.0659 35.5548 23.7728 35.5548 24.6447C35.5548 25.5167 34.848 26.2235 33.976 26.2235H30.9247V27.6964H53.1965L54.8964 25.1466L48.5986 21.3679C47.8509 20.9193 47.6084 19.9495 48.057 19.2018ZM23.7691 37.5889C22.6058 37.2246 21.3682 37.0282 20.0848 37.0282C13.2845 37.0282 7.77187 42.5409 7.77187 49.3411C7.77187 56.1413 13.2845 61.654 20.0848 61.654C26.3501 61.654 31.5225 56.9744 32.2974 50.9198H20.0839C19.5454 50.9198 19.0442 50.6454 18.754 50.1919C18.4638 49.7384 18.4247 49.1682 18.6504 48.6794L23.7691 37.5889ZM32.2974 47.7622C31.8202 44.0341 29.6757 40.8273 26.6354 38.9134L22.5514 47.7622H32.2974ZM61.8691 50.0027L56.7511 38.9138C53.2896 41.0932 50.9894 44.9485 50.9894 49.3411C50.9894 56.1413 56.5021 61.654 63.3023 61.654C70.1025 61.654 75.6152 56.1413 75.6152 49.3411C75.6152 42.5409 70.1025 37.0282 63.3023 37.0282C62.0187 37.0282 60.7809 37.2246 59.6174 37.5891L64.736 48.6794C65.1014 49.4711 64.7559 50.4091 63.9642 50.7745C63.1725 51.1399 62.2345 50.7944 61.8691 50.0027Z" fill="#FF165F"/>
</svg>
