<svg width="69" height="69" viewBox="0 0 69 69" fill="none" xmlns="http://www.w3.org/2000/svg">
<path d="M41.4953 40.5876C42.2112 40.5757 42.8013 41.1464 42.8132 41.8624C42.833 43.0507 42.6161 44.2312 42.1749 45.3348C41.7338 46.4385 41.0774 47.4433 40.244 48.2906C39.4105 49.138 38.4167 49.8109 37.3205 50.2702C36.2243 50.7295 35.0476 50.966 33.859 50.9658C33.143 50.9657 32.5626 50.3851 32.5627 49.6691C32.5628 48.953 33.1434 48.3727 33.8594 48.3728C34.7038 48.3729 35.5397 48.2049 36.3184 47.8786C37.0972 47.5523 37.8032 47.0742 38.3953 46.4723C38.9874 45.8703 39.4538 45.1565 39.7671 44.3725C40.0805 43.5884 40.2346 42.7498 40.2206 41.9056C40.2086 41.1896 40.7794 40.5996 41.4953 40.5876Z" fill="#FF165F"/>
<path fill-rule="evenodd" clip-rule="evenodd" d="M20.7488 10.568C21.9632 10.1756 23.271 10.1801 24.4826 10.5811C25.676 10.976 26.7149 11.7351 27.4535 12.751L29.973 15.724C30.018 15.7771 30.0586 15.8337 30.0945 15.8933L30.0959 15.8947L30.0999 15.899C30.1133 15.9136 30.1531 15.9568 30.2388 16.0334C30.3296 16.1145 30.4046 16.1764 30.4951 16.2511C30.5666 16.3102 30.6479 16.3772 30.7543 16.4681C30.9451 16.6311 31.1993 16.8578 31.4089 17.1261C31.6114 17.3851 31.8885 17.8283 31.8885 18.4128V19.6253C31.8885 20.4675 31.5007 21.261 31.0804 21.8845C30.6396 22.5384 30.0537 23.1664 29.4298 23.7094C28.8043 24.2539 28.1043 24.7444 27.4118 25.1056C26.7492 25.4513 25.9658 25.7462 25.2061 25.7462H20.402L20.402 27.4028L20.4027 27.4058C20.4057 27.4209 20.4206 27.4955 20.4905 27.641C20.579 27.8249 20.723 28.0556 20.9281 28.3274C21.3388 28.8716 21.9108 29.4723 22.5181 30.0481C22.9113 30.4209 23.3063 30.7711 23.6606 31.0741C24.2239 30.1136 24.9 29.2139 25.6805 28.3956C27.9886 25.9759 31.051 24.4356 34.343 24.0126C34.4247 21.385 35.2418 18.8296 36.7056 16.6389C38.2505 14.3268 40.4463 12.5248 43.0153 11.4607C45.5843 10.3966 48.4111 10.1181 51.1384 10.6606C53.8656 11.2031 56.3707 12.5421 58.337 14.5084C60.3032 16.4746 61.6422 18.9797 62.1847 21.707C62.7272 24.4342 62.4488 27.2611 61.3846 29.8301C60.3205 32.3991 58.5185 34.5948 56.2065 36.1397C54.9402 36.9858 53.5521 37.6158 52.0986 38.0127C50.0668 50.1088 39.8987 60.2057 27.3247 60.2057H21.875C21.8291 60.2057 21.7832 60.2033 21.7376 60.1984C20.564 60.0734 19.4712 59.5411 18.6493 58.694C17.9361 57.9591 17.4659 57.0276 17.2953 56.0251C17.1761 55.8919 17.0487 55.7501 16.914 55.6001C15.4277 53.9453 13.0503 51.2985 10.9384 48.2466C8.51217 44.7404 6.25861 40.4569 6.25861 36.3191V19.4977C6.25861 19.4813 6.25891 19.465 6.25953 19.4487C6.30524 18.2402 6.71935 17.0747 7.44633 16.1083C8.17289 15.1425 9.17723 14.4217 10.3248 14.0426L10.3268 14.042L20.7488 10.568ZM34.6168 26.592C31.9338 26.9498 29.4398 28.2114 27.5568 30.1854C26.6875 31.0967 25.976 32.131 25.4391 33.2459C25.4201 33.4844 25.3348 33.7205 25.1793 33.9253C25.1538 33.9587 25.1271 33.9906 25.0992 34.0209C24.5407 35.4278 24.2497 36.9409 24.2571 38.4825C24.2605 39.1985 23.6828 39.7817 22.9667 39.7851C22.2507 39.7885 21.6675 39.2108 21.6641 38.4948C21.6559 36.778 21.9517 35.0902 22.5227 33.504C22.0366 33.1039 21.3875 32.5494 20.7341 31.9299C20.0811 31.3107 19.3928 30.5977 18.8582 29.8892C18.5907 29.5346 18.3409 29.1541 18.1536 28.7647C17.9719 28.3868 17.8089 27.9185 17.8089 27.4106V25.7463H16.4889C15.7729 25.7463 15.1924 25.1658 15.1924 24.4498C15.1924 23.7337 15.7729 23.1532 16.4889 23.1532H19.0415C19.0514 23.1532 19.0613 23.1534 19.0712 23.1536C19.0826 23.1533 19.094 23.1531 19.1055 23.1531H25.2061C25.3526 23.1531 25.6955 23.0763 26.2126 22.8066C26.6998 22.5524 27.2331 22.1838 27.7275 21.7535C28.2235 21.3217 28.6443 20.8594 28.9302 20.4352C29.2366 19.9806 29.2955 19.7084 29.2955 19.6253V18.6449C29.2458 18.5948 29.1736 18.5281 29.0704 18.44C29.0303 18.4057 28.9732 18.3583 28.9088 18.3047C28.7812 18.1986 28.6244 18.0682 28.5114 17.9673C28.3528 17.8256 28.1214 17.6081 27.9368 17.3321L25.4422 14.3884C25.4187 14.3608 25.3964 14.3321 25.3754 14.3025C24.9546 13.7119 24.3565 13.2706 23.668 13.0428C22.9812 12.8155 22.24 12.8124 21.5514 13.0337L11.1393 16.5044C10.4931 16.7176 9.92755 17.1233 9.5185 17.6671C9.11395 18.2049 8.88158 18.8523 8.85163 19.5242V36.3191C8.85163 39.622 10.7013 43.3471 13.0707 46.7711C15.0802 49.675 17.3357 52.1877 18.8281 53.8503L18.8291 53.8513L18.8298 53.8522L18.8322 53.8548C19.0776 54.1281 19.3022 54.3784 19.5017 54.6036C19.6892 54.8154 19.8024 55.0827 19.8239 55.3647C19.8675 55.9372 20.1104 56.4762 20.5102 56.8882C20.8956 57.2855 21.4036 57.5404 21.9512 57.6127H27.3247C38.144 57.6127 47.1892 49.0993 49.3751 38.475C49.0614 38.4969 48.7464 38.5083 48.4306 38.5091C46.9376 38.5859 45.443 38.3922 44.0189 37.9371C43.3368 37.7191 42.9606 36.9895 43.1785 36.3075C43.3965 35.6254 44.1261 35.2491 44.8082 35.4671C45.9434 35.8298 47.1352 35.9826 48.3252 35.918C48.3486 35.9167 48.3721 35.9161 48.3955 35.9161C49.1184 35.9161 49.8361 35.8478 50.5395 35.7139C50.6363 35.6816 50.7378 35.6605 50.8421 35.652C52.2358 35.3476 53.5677 34.7842 54.7659 33.9837C56.6515 32.7237 58.1211 30.9329 58.989 28.8378C59.8569 26.7426 60.0839 24.4371 59.6415 22.2128C59.1991 19.9886 58.107 17.9455 56.5034 16.3419C54.8998 14.7383 52.8567 13.6463 50.6325 13.2038C48.4082 12.7614 46.1028 12.9885 44.0076 13.8563C41.9124 14.7242 40.1216 16.1938 38.8616 18.0795C37.6097 19.9531 36.9378 22.1537 36.9293 24.4065C37.0608 26.2703 37.5977 28.0832 38.5028 29.7183C38.8496 30.3448 38.6228 31.1338 37.9964 31.4805C37.3699 31.8273 36.5809 31.6006 36.2341 30.9741C35.4738 29.6005 34.9295 28.1224 34.6168 26.592Z" fill="#FF165F"/>
</svg>
