<svg width="84" height="84" viewBox="0 0 84 84" fill="none" xmlns="http://www.w3.org/2000/svg">
<path fill-rule="evenodd" clip-rule="evenodd" d="M42.1766 44.0599C41.9546 43.996 41.5294 43.9226 41.0567 44.1226C40.538 44.3421 40.2662 44.7585 40.1483 45.0857C39.9678 45.5864 40.0731 46.0495 40.1021 46.1774L40.1033 46.1823C40.1919 46.5728 40.3829 47.0033 40.5824 47.3901C41.006 48.2109 41.7002 49.2745 42.5939 50.3306C44.3124 52.3611 47.1565 54.8144 50.6101 54.8144C54.0637 54.8144 56.9079 52.3611 58.6263 50.3306C59.52 49.2745 60.2143 48.2109 60.6378 47.3901C60.8374 47.0033 61.0284 46.5728 61.117 46.1823L61.1181 46.1774C61.1472 46.0495 61.2525 45.5864 61.072 45.0857C60.9541 44.7585 60.6822 44.3421 60.1635 44.1226C59.6908 43.9226 59.2656 43.996 59.0437 44.0599C59.014 44.0685 58.9845 44.0779 58.9554 44.0882C56.6555 44.899 53.3057 45.2747 50.6101 45.2747C47.9145 45.2747 44.5647 44.899 42.2649 44.0882C42.2357 44.0779 42.2063 44.0685 42.1766 44.0599ZM50.6101 51.6568C48.6149 51.6568 46.5804 50.1532 45.0042 48.2907C44.9047 48.1731 44.8086 48.0559 44.716 47.9396C46.7216 48.2835 48.8311 48.4324 50.6101 48.4324C52.3891 48.4324 54.4987 48.2835 56.5043 47.9396C56.4117 48.0559 56.3156 48.1731 56.216 48.2907C54.6398 50.1532 52.6054 51.6568 50.6101 51.6568Z" fill="#FF165F"/>
<path d="M58.2131 34.3919C55.6177 34.3919 54.7232 35.8716 54.7232 36.6423C54.7232 37.5142 54.0164 38.2211 53.1444 38.2211C52.2725 38.2211 51.5656 37.5142 51.5656 36.6423C51.5656 33.5838 54.4727 31.2343 58.2131 31.2343C60.1541 31.2343 62.0306 31.9277 63.4245 32.8263C64.1261 33.2786 64.7592 33.817 65.2347 34.4083C65.6849 34.9679 66.1278 35.7439 66.1278 36.6423C66.1278 37.5142 65.4209 38.2211 64.549 38.2211C63.6952 38.2211 62.9997 37.5434 62.9711 36.6966C62.9612 36.6713 62.9197 36.5681 62.7742 36.3873C62.5568 36.117 62.2 35.7938 61.7136 35.4803C60.7315 34.8472 59.4401 34.3919 58.2131 34.3919Z" fill="#FF165F"/>
<path d="M38.4459 36.3873C38.3005 36.5681 38.259 36.6713 38.2491 36.6966C38.2205 37.5434 37.525 38.2211 36.6712 38.2211C35.7993 38.2211 35.0924 37.5142 35.0924 36.6423C35.0924 35.7439 35.5353 34.9679 35.9854 34.4083C36.461 33.817 37.0941 33.2786 37.7957 32.8263C39.1896 31.9277 41.0661 31.2343 43.0071 31.2343C46.7475 31.2343 49.6545 33.5838 49.6545 36.6423C49.6545 37.5142 48.9477 38.2211 48.0757 38.2211C47.2038 38.2211 46.4969 37.5142 46.4969 36.6423C46.4969 35.8716 45.6024 34.3919 43.0071 34.3919C41.7801 34.3919 40.4886 34.8472 39.5066 35.4803C39.0202 35.7938 38.6633 36.117 38.4459 36.3873Z" fill="#FF165F"/>
<path fill-rule="evenodd" clip-rule="evenodd" d="M50.5808 14.6412C50.6005 14.6408 50.6201 14.6408 50.6397 14.6412C57.6803 14.7725 64.7149 16.345 70.2139 18.587C70.776 18.8162 71.1569 19.3473 71.1937 19.9532C71.9626 32.6034 70.5379 41.8187 67.0873 48.7535C63.6137 55.7344 58.1769 60.226 51.3041 63.5886C50.8664 63.8028 50.3542 63.8028 49.9164 63.5886C43.0436 60.226 37.6069 55.7344 34.1333 48.7535C30.6827 41.8187 29.2579 32.6034 30.0268 19.9532C30.0637 19.3473 30.4446 18.8162 31.0067 18.587C36.5057 16.345 43.5403 14.7725 50.5808 14.6412ZM33.122 21.1472C32.5059 32.9784 33.938 41.2728 36.9603 47.3468C39.9324 53.3199 44.5236 57.3077 50.6103 60.406C56.6969 57.3077 61.2882 53.3199 64.2603 47.3468C67.2826 41.2728 68.7147 32.9784 68.0985 21.1472C63.1021 19.2455 56.8545 17.9191 50.6103 17.7988C44.366 17.9191 38.1185 19.2455 33.122 21.1472Z" fill="#FF165F"/>
<path d="M28.2842 30.9974C29.1143 30.7306 29.5709 29.8413 29.3041 29.0112C29.0372 28.1811 28.1479 27.7245 27.3178 27.9913C21.1826 29.9637 15.5274 33.1292 11.5346 36.749C11.094 37.1484 10.9152 37.7614 11.072 38.335C15.9867 56.313 26.1168 67.2145 40.5489 68.8449C41.0066 68.8966 41.4639 68.7459 41.8012 68.4323C43.6499 66.7134 44.7843 64.8447 45.6149 62.7531C45.9367 61.9427 45.5406 61.0249 44.7302 60.7031C43.9198 60.3813 43.002 60.7773 42.6802 61.5877C42.0758 63.1098 41.3156 64.4111 40.1645 65.6141C28.0856 63.932 19.0863 54.7712 14.3841 38.4507C17.9533 35.433 22.8857 32.7329 28.2842 30.9974Z" fill="#FF165F"/>
<path fill-rule="evenodd" clip-rule="evenodd" d="M32.5179 47.9268C32.6877 47.0716 32.132 46.2406 31.2768 46.0708C30.4518 45.907 29.6493 46.4182 29.4412 47.2223C29.4303 47.2426 29.408 47.2815 29.3679 47.3395C29.2725 47.4774 29.1173 47.6626 28.8989 47.8648C28.4611 48.27 27.8367 48.6814 27.0739 48.9215C26.223 49.1893 25.3802 49.2726 24.7867 49.1965C24.5288 49.1635 24.3933 49.1163 24.3293 49.0851C24.0335 48.3284 23.2015 47.9124 22.4087 48.1485C21.5731 48.3974 21.0974 49.2766 21.3463 50.1123C21.8142 51.6833 23.3366 52.1941 24.3851 52.3285C25.534 52.4758 26.8454 52.3038 28.022 51.9334C29.2866 51.5353 30.3095 50.8617 31.0438 50.182C31.4115 49.8417 31.7236 49.4845 31.9648 49.1357C32.1837 48.8193 32.4249 48.395 32.5179 47.9268ZM24.2803 49.053C24.2803 49.053 24.2893 49.0572 24.3005 49.0695C24.2848 49.0599 24.2803 49.053 24.2803 49.053Z" fill="#FF165F"/>
</svg>
