<svg width="120" height="120" viewBox="0 0 120 120" fill="none" xmlns="http://www.w3.org/2000/svg">
<path fill-rule="evenodd" clip-rule="evenodd" d="M120 0H0V120H0.234233L3 112.929L4.20398 110.039C10.813 94.1762 24.7467 81.9136 41.9707 76.7972C34.5822 71.2548 29.7972 62.3914 29.7972 52.403C29.7972 35.6119 43.3196 22 60.0005 22C76.6813 22 90.2038 35.6119 90.2038 52.403C90.2038 62.3916 85.4186 71.255 78.0299 76.7974C95.2537 81.9139 109.187 94.1764 115.796 110.039L117 112.929L119.782 120H120V0ZM110.683 120C109.689 116.924 108.337 113.751 106.585 110.485C98.4641 94.2573 80.7835 82.8324 60.072 82.806L60.0005 82.8061L59.9286 82.806C39.2168 82.8322 21.536 94.2572 13.4147 110.485C11.7911 113.73 10.5831 116.904 9.74446 120H110.683ZM60 74.1939L60.0655 74.194C71.9914 74.1587 81.6483 64.416 81.6483 52.403C81.6483 40.3682 71.9563 30.612 60.0005 30.612C48.0447 30.612 38.3526 40.3682 38.3526 52.403C38.3526 64.416 48.0094 74.1585 59.9352 74.194L60 74.1939Z" fill="#D1D5DA"/>
</svg>
