<svg width="123" height="28" viewBox="0 0 123 28" fill="none" xmlns="http://www.w3.org/2000/svg">
<path d="M11.477 0.72876C3.68908 0.72876 0.12207 3.95524 0.12207 8.94716C0.12207 13.0259 2.38118 15.8263 7.85059 16.8003C8.92069 16.9829 10.8825 17.3482 11.8337 17.5308C14.0929 17.8961 14.4495 18.3831 14.4495 19.1136C14.4495 19.9659 13.7361 20.6355 11.1203 20.6355C8.08839 20.6355 3.27293 19.4789 0.300421 17.9569V25.1404C2.85678 26.358 6.83993 27.2711 10.6447 27.2711C18.1949 27.2711 21.9997 23.4967 21.9997 18.444C21.9997 14.2434 20.0379 11.8692 14.4495 10.8343C13.3794 10.6517 12.0121 10.4082 11.1203 10.2256C8.38564 9.73854 7.85059 9.37329 7.85059 8.58189C7.85059 7.72961 8.56399 7.24259 11.2987 7.24259C14.2118 7.24259 18.076 8.15575 20.6918 9.43417V2.49419C18.5516 1.45928 14.9252 0.72876 11.477 0.72876Z" fill="white"/>
<path d="M47.3057 1.34595H38.6138L31.4001 13.7518V1.34595H23.7725V26.6538H31.4001V14.248L38.732 26.6538H47.424L39.2642 13.6897L47.3057 1.34595Z" fill="white"/>
<path d="M55.7014 1.34595H48.0146V26.6538H55.7014V1.34595Z" fill="white"/>
<path d="M58.6592 26.6538V1.34595H66.3665V20.2648H75.8065V26.6538H58.6592Z" fill="white"/>
<path d="M77.5791 26.6538V1.34595H85.2864V20.2648H94.7264V26.6538H77.5791Z" fill="white"/>
<path d="M110.999 26.6538H119.562L113.694 17.6816C116.867 16.0728 118.604 13.1026 118.604 9.57563C118.604 4.56356 114.472 1.34595 109.562 1.34595H95.9102V26.6538H103.694V19.476H106.449L110.999 26.6538ZM103.694 7.53368H107.526C109.862 7.53368 110.879 8.64748 110.879 10.38C110.879 12.2982 109.802 13.2883 107.526 13.2883H103.694V7.53368Z" fill="white"/>
<path d="M121.017 3.89276C120.845 3.89276 120.683 3.86076 120.531 3.79676C120.383 3.73276 120.253 3.64476 120.141 3.53276C120.033 3.42076 119.947 3.28876 119.883 3.13676C119.819 2.98476 119.787 2.82276 119.787 2.65076C119.787 2.47876 119.819 2.31676 119.883 2.16476C119.947 2.01276 120.033 1.88076 120.141 1.76876C120.253 1.65676 120.383 1.56876 120.531 1.50476C120.683 1.44076 120.845 1.40876 121.017 1.40876C121.189 1.40876 121.349 1.44076 121.497 1.50476C121.649 1.56876 121.779 1.65676 121.887 1.76876C121.999 1.88076 122.087 2.01276 122.151 2.16476C122.215 2.31676 122.247 2.47876 122.247 2.65076C122.247 2.82276 122.215 2.98476 122.151 3.13676C122.087 3.28876 121.999 3.42076 121.887 3.53276C121.779 3.64476 121.649 3.73276 121.497 3.79676C121.349 3.86076 121.189 3.89276 121.017 3.89276ZM121.011 3.62276C121.287 3.62276 121.513 3.53076 121.689 3.34676C121.869 3.16276 121.959 2.93076 121.959 2.65076C121.959 2.37076 121.869 2.13876 121.689 1.95476C121.513 1.77076 121.287 1.67876 121.011 1.67876C120.743 1.67876 120.521 1.77076 120.345 1.95476C120.169 2.13876 120.081 2.37076 120.081 2.65076C120.081 2.93076 120.169 3.16276 120.345 3.34676C120.521 3.53076 120.743 3.62276 121.011 3.62276ZM120.585 3.20876V2.08076H121.095C121.215 2.08076 121.309 2.11476 121.377 2.18276C121.445 2.24676 121.479 2.33276 121.479 2.44076C121.479 2.50476 121.461 2.56476 121.425 2.62076C121.393 2.67676 121.345 2.72076 121.281 2.75276L121.545 3.20876H121.233L121.023 2.81276H120.867V3.20876H120.585ZM121.035 2.30276H120.867V2.60876H121.035C121.083 2.60876 121.121 2.59476 121.149 2.56676C121.181 2.53876 121.197 2.50076 121.197 2.45276C121.197 2.40476 121.183 2.36876 121.155 2.34476C121.127 2.31676 121.087 2.30276 121.035 2.30276Z" fill="white"/>
</svg>
