<svg width="86" height="118" viewBox="0 0 86 118" fill="none" xmlns="http://www.w3.org/2000/svg">
<g clip-path="url(#clip0)">
<path d="M68.381 29.7702C70.0133 29.7702 71.5714 29.4374 73.0553 28.9567C78.9908 26.9596 83.2941 21.3754 83.2941 14.7927C83.257 6.58274 76.5424 0 68.3068 0H33.2869C17.335 0 4.42517 13.0176 4.46227 28.9567C4.49937 44.8588 17.4834 57.7284 33.4353 57.6914C33.6579 57.6914 33.8434 57.6914 34.066 57.6914C33.7321 57.5065 33.3982 57.2846 33.0643 57.0627C29.0949 54.3631 26.4981 49.8513 26.461 44.7478C26.4239 36.5379 33.1385 29.7702 41.3741 29.7702H68.381Z" fill="#FF165F"/>
<path d="M14.9131 60.4652C13.2809 60.4652 11.7228 60.798 10.2389 61.2788C4.30329 63.2758 0 68.86 0 75.4428C0.0370973 83.6527 6.75172 90.2355 14.9873 90.2355H50.0072C65.9591 90.2355 78.869 77.2179 78.8319 61.2788C78.7948 45.3767 65.8107 32.507 49.8588 32.544C49.6362 32.544 49.4508 32.544 49.2282 32.544C49.5621 32.7289 49.8959 32.9508 50.2298 33.1727C54.1621 35.8354 56.796 40.3472 56.796 45.4506C56.8331 53.6236 50.1185 60.4282 41.8829 60.4282H14.9131V60.4652Z" fill="#FF165F"/>
</g>
<path d="M7.91889 99.4902C2.48781 99.4902 0.000289917 101.74 0.000289917 105.221C0.000289917 108.066 1.57572 110.019 5.38991 110.698C6.13617 110.825 7.5043 111.08 8.16764 111.207C9.74307 111.462 9.99182 111.802 9.99182 112.311C9.99182 112.906 9.49432 113.373 7.67014 113.373C5.55575 113.373 2.1976 112.566 0.124666 111.505V116.514C1.90739 117.363 4.68512 118 7.33847 118C12.6037 118 15.2571 115.368 15.2571 111.844C15.2571 108.915 13.8889 107.259 9.99182 106.538C9.24556 106.41 8.29202 106.24 7.67014 106.113C5.76304 105.773 5.38991 105.519 5.38991 104.967C5.38991 104.372 5.88742 104.033 7.79451 104.033C9.82599 104.033 12.5208 104.67 14.345 105.561V100.721C12.8525 99.9997 10.3235 99.4902 7.91889 99.4902Z" fill="white"/>
<path d="M32.9048 99.9207H26.8434L21.8127 108.572V99.9207H16.4935V117.57H21.8127V108.918L26.9258 117.57H32.9873L27.2969 108.529L32.9048 99.9207Z" fill="white"/>
<path d="M38.7595 99.9207H33.399V117.57H38.7595V99.9207Z" fill="white"/>
<path d="M40.8226 117.57V99.9207H46.1975V113.114H52.7806V117.57H40.8226Z" fill="white"/>
<path d="M54.017 117.57V99.9207H59.3918V113.114H65.975V117.57H54.017Z" fill="white"/>
<path d="M77.3227 117.57H83.2939L79.2017 111.313C81.4148 110.191 82.6258 108.119 82.6258 105.66C82.6258 102.165 79.7446 99.9207 76.3205 99.9207H66.8V117.57H72.2284V112.564H74.1492L77.3227 117.57ZM72.2284 104.236H74.9008C76.5293 104.236 77.2392 105.013 77.2392 106.221C77.2392 107.558 76.4876 108.249 74.9008 108.249H72.2284V104.236Z" fill="white"/>
<path d="M84.3073 101.654C84.1353 101.654 83.9733 101.622 83.8213 101.558C83.6733 101.494 83.5433 101.406 83.4313 101.294C83.3233 101.182 83.2373 101.05 83.1733 100.898C83.1093 100.746 83.0773 100.584 83.0773 100.412C83.0773 100.24 83.1093 100.078 83.1733 99.9262C83.2373 99.7742 83.3233 99.6422 83.4313 99.5302C83.5433 99.4182 83.6733 99.3302 83.8213 99.2662C83.9733 99.2022 84.1353 99.1702 84.3073 99.1702C84.4793 99.1702 84.6393 99.2022 84.7873 99.2662C84.9393 99.3302 85.0693 99.4182 85.1773 99.5302C85.2893 99.6422 85.3773 99.7742 85.4413 99.9262C85.5053 100.078 85.5373 100.24 85.5373 100.412C85.5373 100.584 85.5053 100.746 85.4413 100.898C85.3773 101.05 85.2893 101.182 85.1773 101.294C85.0693 101.406 84.9393 101.494 84.7873 101.558C84.6393 101.622 84.4793 101.654 84.3073 101.654ZM84.3013 101.384C84.5773 101.384 84.8033 101.292 84.9793 101.108C85.1593 100.924 85.2493 100.692 85.2493 100.412C85.2493 100.132 85.1593 99.9002 84.9793 99.7162C84.8033 99.5322 84.5773 99.4402 84.3013 99.4402C84.0333 99.4402 83.8113 99.5322 83.6353 99.7162C83.4593 99.9002 83.3713 100.132 83.3713 100.412C83.3713 100.692 83.4593 100.924 83.6353 101.108C83.8113 101.292 84.0333 101.384 84.3013 101.384ZM83.8753 100.97V99.8422H84.3853C84.5053 99.8422 84.5993 99.8762 84.6673 99.9442C84.7353 100.008 84.7693 100.094 84.7693 100.202C84.7693 100.266 84.7513 100.326 84.7153 100.382C84.6833 100.438 84.6353 100.482 84.5713 100.514L84.8353 100.97H84.5233L84.3133 100.574H84.1573V100.97H83.8753ZM84.3253 100.064H84.1573V100.37H84.3253C84.3733 100.37 84.4113 100.356 84.4393 100.328C84.4713 100.3 84.4873 100.262 84.4873 100.214C84.4873 100.166 84.4733 100.13 84.4453 100.106C84.4173 100.078 84.3773 100.064 84.3253 100.064Z" fill="white"/>
<defs>
<clipPath id="clip0">
<rect width="83.2941" height="90.2353" fill="white"/>
</clipPath>
</defs>
</svg>
