<svg width="46" height="44" viewBox="0 0 46 44" fill="none" xmlns="http://www.w3.org/2000/svg">
<path d="M24.9085 1.38833C24.6398 0.560489 23.8694 0 23 0C22.1307 0 21.3602 0.560489 21.0915 1.38833L16.5862 15.2716H2.00682C1.13747 15.2716 0.366995 15.8321 0.098351 16.6599C-0.170292 17.4878 0.124004 18.3947 0.827322 18.9063L12.6223 27.4866L8.11703 41.3699C7.84839 42.1978 8.14268 43.1046 8.846 43.6163C9.54932 44.1279 10.5017 44.1279 11.205 43.6163L23 35.0359L34.795 43.6163C35.4983 44.1279 36.4507 44.1279 37.154 43.6163C37.8573 43.1046 38.1516 42.1978 37.883 41.3699L33.3777 27.4866L45.1727 18.9063C45.876 18.3947 46.1703 17.4878 45.9016 16.6599C45.633 15.8321 44.8625 15.2716 43.9932 15.2716H29.4138L24.9085 1.38833Z" fill="#FF165F"/>
</svg>
