<svg width="16" height="16" viewBox="0 0 16 16" fill="none" xmlns="http://www.w3.org/2000/svg">
<path d="M8.34697 1.77526C10.3533 1.77526 10.5913 1.78277 11.3841 1.81909C13.4205 1.91177 14.3717 2.878 14.4644 4.89939C14.5007 5.69153 14.5076 5.92949 14.5076 7.93585C14.5076 9.94283 14.5 10.1802 14.4644 10.9723C14.371 12.9918 13.4223 13.9599 11.3841 14.0526C10.5913 14.0889 10.3546 14.0964 8.34697 14.0964C6.34061 14.0964 6.10265 14.0889 5.3105 14.0526C3.26908 13.9593 2.32288 12.9887 2.23021 10.9717C2.19389 10.1795 2.18637 9.94221 2.18637 7.93522C2.18637 5.92887 2.19451 5.69153 2.23021 4.89876C2.32351 2.878 3.27221 1.91114 5.3105 1.81846C6.10328 1.78277 6.34061 1.77526 8.34697 1.77526V1.77526ZM8.34697 0.420776C6.30617 0.420776 6.05068 0.429543 5.24914 0.465863C2.52014 0.591104 1.00347 2.10526 0.878232 4.83677C0.841286 5.63893 0.83252 5.89442 0.83252 7.93522C0.83252 9.97602 0.841286 10.2321 0.877606 11.0337C1.00285 13.7627 2.51701 15.2793 5.24851 15.4046C6.05068 15.4409 6.30617 15.4497 8.34697 15.4497C10.3878 15.4497 10.6439 15.4409 11.4454 15.4046C14.1719 15.2793 15.6923 13.7652 15.8157 11.0337C15.8526 10.2321 15.8614 9.97602 15.8614 7.93522C15.8614 5.89442 15.8526 5.63893 15.8163 4.83739C15.6936 2.1109 14.1776 0.59173 11.446 0.466489C10.6439 0.429543 10.3878 0.420776 8.34697 0.420776V0.420776ZM8.34697 4.07655C6.21599 4.07655 4.4883 5.80425 4.4883 7.93522C4.4883 10.0662 6.21599 11.7945 8.34697 11.7945C10.4779 11.7945 12.2056 10.0668 12.2056 7.93522C12.2056 5.80425 10.4779 4.07655 8.34697 4.07655ZM8.34697 10.44C6.96368 10.44 5.84215 9.31913 5.84215 7.93522C5.84215 6.55194 6.96368 5.43041 8.34697 5.43041C9.73025 5.43041 10.8518 6.55194 10.8518 7.93522C10.8518 9.31913 9.73025 10.44 8.34697 10.44ZM12.3584 3.02265C11.86 3.02265 11.4561 3.42655 11.4561 3.92439C11.4561 4.42222 11.86 4.82612 12.3584 4.82612C12.8563 4.82612 13.2595 4.42222 13.2595 3.92439C13.2595 3.42655 12.8563 3.02265 12.3584 3.02265Z" fill="#0C1F3F"/>
</svg>
