<svg width="15" height="18" viewBox="0 0 15 18" fill="none" xmlns="http://www.w3.org/2000/svg">
<path d="M12.578 4.19468C11.6978 3.61983 11.06 2.70367 10.8624 1.62584C10.8175 1.39231 10.7996 1.15878 10.7996 0.907288H7.98822V12.1976C7.93433 13.464 6.89243 14.479 5.62598 14.479C5.23077 14.479 4.85353 14.3802 4.53018 14.2095C3.7757 13.8143 3.26373 13.0239 3.26373 12.1167C3.26373 10.8144 4.3236 9.75449 5.62598 9.75449C5.86849 9.75449 6.10202 9.79042 6.32657 9.86228V6.98806C6.10202 6.96111 5.86849 6.93417 5.62598 6.93417C2.76074 6.92518 0.434418 9.2515 0.434418 12.1078C0.434418 13.8592 1.31465 15.4131 2.64397 16.3472C3.48828 16.94 4.51222 17.2903 5.61699 17.2903C8.47325 17.2903 10.7996 14.964 10.7996 12.1078V6.38627C11.9043 7.17668 13.2606 7.64374 14.7157 7.64374V4.83239C13.9253 4.83239 13.1977 4.59886 12.587 4.19468H12.578Z" fill="#0C1F3F"/>
</svg>
