<svg width="21" height="18" viewBox="0 0 21 18" fill="none" xmlns="http://www.w3.org/2000/svg">
<path d="M18.1844 4.93158C18.1933 5.11121 18.1933 5.28187 18.1933 5.46151C18.1933 10.8686 14.0796 17.1021 6.55275 17.1021C4.32523 17.1021 2.1516 16.4644 0.283356 15.2608C0.606705 15.2967 0.930055 15.3147 1.2534 15.3237C3.0947 15.3237 4.88211 14.7039 6.33718 13.5722C4.5857 13.5363 3.04979 12.3956 2.51088 10.7339C3.12165 10.8507 3.75936 10.8237 4.36115 10.662C2.448 10.2758 1.07377 8.5962 1.07377 6.64713V6.59323C1.63963 6.9076 2.27735 7.08724 2.93303 7.1052C1.12766 5.91061 0.579759 3.51243 1.66657 1.64419C3.7414 4.20404 6.80424 5.75791 10.1006 5.91959C9.76828 4.50044 10.2174 3.00944 11.2862 2.01245C12.9389 0.458573 15.5257 0.53941 17.0796 2.19209C17.9957 2.01245 18.876 1.67113 19.6754 1.19509C19.37 2.13819 18.7322 2.94657 17.879 3.45854C18.6873 3.35974 19.4867 3.14417 20.2322 2.81184C19.6843 3.63818 18.9927 4.35673 18.1933 4.93158H18.1844Z" fill="#0C1F3F"/>
</svg>
