<svg width="16" height="16" viewBox="0 0 16 16" fill="none" xmlns="http://www.w3.org/2000/svg">
<path d="M12.2431 0.420776H3.47623C1.74729 0.420776 0.345215 1.82285 0.345215 3.5518V12.3187C0.345215 14.0476 1.74729 15.4497 3.47623 15.4497H12.2431C13.9727 15.4497 15.3741 14.0476 15.3741 12.3187V3.5518C15.3741 1.82285 13.9727 0.420776 12.2431 0.420776ZM5.35485 12.3187H3.47623V5.43041H5.35485V12.3187ZM4.41554 4.63638C3.81063 4.63638 3.31968 4.14168 3.31968 3.53176C3.31968 2.92183 3.81063 2.42713 4.41554 2.42713C5.02045 2.42713 5.5114 2.92183 5.5114 3.53176C5.5114 4.14168 5.02108 4.63638 4.41554 4.63638ZM12.8693 12.3187H10.9907V8.8094C10.9907 6.70035 8.48587 6.86003 8.48587 8.8094V12.3187H6.60725V5.43041H8.48587V6.53566C9.36005 4.91629 12.8693 4.79669 12.8693 8.08614V12.3187Z" fill="#0C1F3F"/>
</svg>
